<svg width="18" height="18" viewBox="0 0 18 18" fill="none" xmlns="http://www.w3.org/2000/svg">
<path fill-rule="evenodd" clip-rule="evenodd" d="M8.99919 0.300049C4.19561 0.300049 0.299988 4.19516 0.299988 9.00034C0.299988 12.8436 2.79257 16.1047 6.24971 17.2557C6.68499 17.3353 6.84361 17.0666 6.84361 16.8359C6.84361 16.6292 6.83614 16.0823 6.83187 15.3565C4.41192 15.882 3.90133 14.19 3.90133 14.19C3.50558 13.1849 2.93517 12.9173 2.93517 12.9173C2.14526 12.3779 2.99499 12.3886 2.99499 12.3886C3.86822 12.45 4.32753 13.2853 4.32753 13.2853C5.10356 14.6147 6.36401 14.2306 6.85964 14.0079C6.93868 13.4461 7.16353 13.0626 7.41188 12.8452C5.48009 12.6252 3.44897 11.8791 3.44897 8.54529C3.44897 7.59515 3.78811 6.81913 4.34463 6.2108C4.2549 5.99076 3.95635 5.1063 4.43008 3.90834C4.43008 3.90834 5.16017 3.67441 6.82225 4.79973C7.51603 4.60692 8.26055 4.51079 9.00026 4.50705C9.73943 4.51079 10.4834 4.60692 11.1783 4.79973C12.8393 3.67441 13.5683 3.90834 13.5683 3.90834C14.0431 5.1063 13.7445 5.99076 13.6554 6.2108C14.2129 6.81913 14.5494 7.59515 14.5494 8.54529C14.5494 11.8876 12.5151 12.623 10.5774 12.8383C10.8893 13.1069 11.1676 13.6378 11.1676 14.4496C11.1676 15.6123 11.1569 16.5507 11.1569 16.8359C11.1569 17.0688 11.3139 17.3396 11.7551 17.2546C15.2095 16.1015 17.7 12.8431 17.7 9.00034C17.7 4.19516 13.8044 0.300049 8.99919 0.300049Z" fill="white"/>
</svg>
