<svg width="18" height="18" viewBox="0 0 18 18" fill="none" xmlns="http://www.w3.org/2000/svg">
<path fill-rule="evenodd" clip-rule="evenodd" d="M15.4909 15.4908C15.8838 15.098 16.1902 14.6274 16.3906 14.1092C16.5834 13.6131 16.7153 13.0461 16.7532 12.2158C16.7911 11.3839 16.8001 11.1183 16.8001 8.99996C16.8001 6.88163 16.7911 6.61589 16.7532 5.78405C16.7153 4.9538 16.5834 4.38683 16.3906 3.89069C16.1947 3.37024 15.8878 2.89876 15.4909 2.50915C15.1013 2.11229 14.6298 1.8052 14.1094 1.60931C13.6132 1.41662 13.0462 1.28479 12.2159 1.24704C11.3841 1.20893 11.1185 1.19995 9.00008 1.19995C6.88172 1.19995 6.61601 1.20893 5.78418 1.2469C4.95392 1.28479 4.38695 1.41662 3.89081 1.60945C3.37036 1.80532 2.89889 2.11234 2.50927 2.50913C2.1124 2.89871 1.80529 3.37018 1.60937 3.89065C1.41668 4.38683 1.28485 4.9538 1.2471 5.78405C1.20899 6.61589 1.20001 6.8816 1.20001 8.99996C1.20001 11.1183 1.20899 11.3841 1.2471 12.2158C1.28501 13.0461 1.41684 13.6131 1.60967 14.1092C1.80553 14.6298 2.11255 15.1011 2.50934 15.4908C2.89895 15.8876 3.37042 16.1946 3.89087 16.3904C4.38704 16.5832 4.95402 16.7151 5.78424 16.753C6.61619 16.791 6.88181 16.8 9.00016 16.8C11.1185 16.8 11.3842 16.791 12.216 16.753C13.0463 16.7151 13.6133 16.5832 14.1094 16.3904C14.6275 16.19 15.0982 15.8836 15.4909 15.4908ZM2.3994 8.0819C2.3997 8.33424 2.40007 8.63447 2.40007 8.99998C2.40007 9.36548 2.3997 9.66571 2.3994 9.91804C2.3982 10.9031 2.3979 11.1582 2.42357 11.7186C2.45551 12.421 2.49389 12.9373 2.61107 13.3263C2.72372 13.7004 2.85007 14.081 3.26257 14.5405C3.67507 14.9998 4.07294 15.2079 4.57975 15.3608C5.08656 15.5136 5.72353 15.5464 6.27664 15.5716C6.904 15.6003 7.15264 15.6002 8.46858 15.5998H9.00008C9.35166 15.5998 9.64284 15.6001 9.88909 15.6004C10.8984 15.6015 11.1531 15.6018 11.7189 15.5758C12.4215 15.5439 12.9377 15.5055 13.3267 15.3884C13.7008 15.2757 14.0814 15.1494 14.5408 14.7368C15.0001 14.3244 15.2082 13.9264 15.3611 13.4197C15.514 12.9128 15.5469 12.2758 15.5721 11.7228C15.6006 11.0962 15.6005 10.8483 15.6003 9.53694V9.53681L15.6001 9.00042V8.46892C15.6005 7.15297 15.6006 6.90433 15.5719 6.27697C15.5467 5.72387 15.5139 5.0869 15.3611 4.58009C15.2082 4.07329 15.0001 3.67541 14.5408 3.26291C14.0814 2.85041 13.7007 2.72406 13.3267 2.6114C12.9376 2.49422 12.4213 2.45585 11.7189 2.4239C11.1531 2.39798 10.8983 2.39826 9.88912 2.39936C9.64285 2.39964 9.35167 2.39996 9.00008 2.39996L8.46846 2.39987C7.15262 2.39952 6.90398 2.39945 6.27664 2.42807C5.72353 2.4533 5.08656 2.48615 4.57975 2.639C4.07294 2.79186 3.67507 2.99994 3.26257 3.45932C2.85007 3.9187 2.72372 4.29938 2.61107 4.67339C2.49389 5.06244 2.45551 5.57868 2.42357 6.2812C2.3979 6.84152 2.3982 7.09676 2.3994 8.0819ZM8.99996 6.30013C7.5089 6.30013 6.30016 7.50888 6.30016 8.99994C6.30016 10.491 7.5089 11.6997 8.99996 11.6997C10.491 11.6997 11.6998 10.491 11.6998 8.99994C11.6998 7.50888 10.491 6.30013 8.99996 6.30013ZM5.10016 8.99994C5.10016 6.84613 6.84616 5.10013 8.99996 5.10013C11.1538 5.10013 12.8998 6.84613 12.8998 8.99994C12.8998 11.1537 11.1538 12.8997 8.99996 12.8997C6.84616 12.8997 5.10016 11.1537 5.10016 8.99994ZM13.1637 5.73631C13.6607 5.73631 14.0637 5.33338 14.0637 4.83631C14.0637 4.33926 13.6607 3.93631 13.1637 3.93631C12.6666 3.93631 12.2637 4.33926 12.2637 4.83631C12.2637 5.33338 12.6666 5.73631 13.1637 5.73631Z" fill="white"/>
</svg>
