<svg width="183" height="52" viewBox="0 0 183 52" fill="none" xmlns="http://www.w3.org/2000/svg">
<path d="M71.6149 35.0475H75.7735V27.9184H77.5816L81.9986 35.0475H86.4413L81.5595 27.1952C83.7292 26.5495 85.3565 25.0771 85.3565 22.2875V22.1842C85.3565 18.3614 82.5927 16.5791 78.2274 16.5791H71.6149V35.0475ZM75.7735 25.0771V19.782H78.1241C80.1388 19.782 81.2754 20.4278 81.2754 22.3133V22.4167C81.2754 24.199 80.2164 25.0771 78.1241 25.0771H75.7735Z" fill="black"/>
<path d="M93.5793 35.3316C97.2729 35.3316 99.5976 33.7044 100.037 30.7855H96.498C96.2655 31.9221 95.4132 32.6712 93.6826 32.6712C91.642 32.6712 90.428 31.3797 90.3247 29.1325H100.063V28.0993C100.063 23.269 96.963 21.2285 93.4759 21.2285C89.5498 21.2285 86.5276 23.9923 86.5276 28.2542V28.4608C86.5276 32.7745 89.4981 35.3316 93.5793 35.3316ZM90.3763 26.8336C90.6604 24.9222 91.797 23.8115 93.4759 23.8115C95.2582 23.8115 96.2914 24.793 96.4206 26.8336H90.3763Z" fill="black"/>
<path d="M101.843 35.0475H105.562V15.4167H101.843V35.0475Z" fill="black"/>
<path d="M112.698 35.3316C114.92 35.3316 116.288 34.2984 116.986 32.9295V35.0475H120.705V21.5385H116.986V29.4682C116.986 31.4572 115.746 32.4387 114.171 32.4387C112.569 32.4387 111.82 31.5604 111.82 29.7265V21.5385H108.101V30.2431C108.101 33.7818 110.064 35.3316 112.698 35.3316Z" fill="black"/>
<path d="M123.245 35.0475H126.99V27.0661C126.99 25.2322 128.152 24.3022 129.599 24.3022C130.917 24.3022 131.717 25.0771 131.717 26.8078V35.0475H135.437V27.0661C135.437 25.2322 136.599 24.3022 138.045 24.3022C139.388 24.3022 140.164 25.0771 140.164 26.8078V35.0475H143.883V26.3945C143.883 22.8041 141.946 21.2285 139.44 21.2285C137.735 21.2285 135.979 21.9517 134.894 23.579C134.249 21.9776 132.905 21.2285 131.123 21.2285C129.108 21.2285 127.662 22.3392 126.99 23.6048V21.5384H123.245V35.0475Z" fill="black"/>
<path d="M152.532 35.3316C156.226 35.3316 158.551 33.7044 158.989 30.7855H155.451C155.218 31.9221 154.366 32.6712 152.635 32.6712C150.594 32.6712 149.381 31.3797 149.277 29.1325H159.015V28.0993C159.015 23.269 155.915 21.2285 152.428 21.2285C148.502 21.2285 145.48 23.9923 145.48 28.2542V28.4608C145.48 32.7745 148.451 35.3316 152.532 35.3316ZM149.329 26.8336C149.613 24.9222 150.75 23.8115 152.428 23.8115C154.211 23.8115 155.244 24.793 155.374 26.8336H149.329Z" fill="black"/>
<path fill-rule="evenodd" clip-rule="evenodd" d="M57.303 17.684L57.0519 17.2356C56.728 16.6932 56.2712 16.2425 55.7246 15.9261L43.6885 8.98431C43.1435 8.66818 42.5249 8.50114 41.8948 8.5H41.3746C40.7445 8.50114 40.1259 8.66818 39.5808 8.98431L27.5449 15.9441C27.0013 16.2584 26.5498 16.7099 26.2354 17.2535L25.9843 17.7019C25.6682 18.2469 25.5011 18.8656 25.5 19.4956V33.3972C25.5011 34.0272 25.6682 34.6459 25.9843 35.1909L26.2354 35.6393C26.5579 36.1766 27.0076 36.6263 27.5449 36.9488L39.5988 43.8905C40.1411 44.2132 40.7616 44.3808 41.3925 44.3748H41.8948C42.5249 44.3737 43.1435 44.2067 43.6885 43.8905L55.7246 36.9309C56.2735 36.6236 56.7267 36.1704 57.0339 35.6214L57.303 35.173C57.6154 34.6264 57.7822 34.0087 57.7873 33.3792V19.4777C57.7863 18.8477 57.6192 18.229 57.303 17.684ZM41.3746 12.0874H41.8948L52.4062 18.1503L41.6437 24.3566L30.8812 18.1503L41.3746 12.0874ZM43.4374 39.8906L53.9308 33.8277L54.1998 33.3793V21.2536L43.4374 27.4779V39.8906Z" fill="black"/>
</svg>
