<svg width="18" height="18" viewBox="0 0 18 18" fill="none" xmlns="http://www.w3.org/2000/svg">
<path fill-rule="evenodd" clip-rule="evenodd" d="M8.78009 5.63544C8.78009 3.6177 10.4153 1.98218 12.432 1.98218C13.6792 1.98218 14.665 2.60681 15.2983 3.49701L15.22 3.30262C15.938 3.16188 16.6126 2.89933 17.2216 2.53799C16.9861 3.2742 16.4867 3.89268 15.8358 4.28244C16.4739 4.20597 17.0808 4.0368 17.6459 3.78644L17.6445 3.78847C17.2229 4.4198 16.6884 4.97399 16.0726 5.41923L16.0441 5.34838C16.0776 5.56499 16.0947 5.78345 16.0947 6.00084C16.0947 10.3814 12.7581 15.4694 6.62553 15.4694C4.74676 15.4694 2.99706 14.919 1.52412 13.9739C1.2917 13.8248 1.22418 13.5155 1.3733 13.2831C1.37935 13.2737 1.38566 13.2645 1.39221 13.2557C1.47024 13.0804 1.65548 12.9683 1.85601 12.992C3.04012 13.1315 4.22734 12.9691 5.25687 12.4703C4.2292 12.0857 3.42445 11.2451 3.08821 10.1961C3.03976 10.045 3.07452 9.87947 3.17969 9.76059C3.20492 9.73206 3.23332 9.70723 3.26406 9.68638C2.4683 9.02555 1.96174 8.02879 1.96174 6.9136V6.873C1.96174 6.71355 2.04612 6.566 2.18356 6.48515C2.26763 6.43568 2.36388 6.4157 2.45786 6.42537C2.15859 5.89965 1.98745 5.29118 1.98745 4.64339C1.98745 4.07937 1.99244 3.39698 2.37253 2.78431C2.45691 2.64829 2.60202 2.57291 2.75105 2.57149C2.93089 2.52997 3.12691 2.59001 3.25143 2.74271C4.60014 4.39661 6.55798 5.5304 8.78383 5.80157C8.78135 5.74652 8.78009 5.69114 8.78009 5.63544ZM6.62553 14.4694C5.53699 14.4694 4.49765 14.2631 3.54238 13.888C4.69085 13.7508 5.80015 13.3372 6.73917 12.6013C6.88909 12.4838 6.9488 12.2846 6.88824 12.104C6.82768 11.9234 6.65998 11.8005 6.46953 11.7972C5.53892 11.7807 4.72195 11.2926 4.24872 10.5616C4.52677 10.5512 4.79757 10.5094 5.05791 10.439C5.25949 10.3845 5.39708 10.1985 5.3902 9.98978C5.38331 9.78107 5.23375 9.60452 5.02901 9.56342C4.00925 9.3587 3.19743 8.57952 2.94416 7.57852C3.22526 7.6595 3.52039 7.7073 3.82479 7.71726C4.0256 7.72383 4.20643 7.59649 4.26792 7.40521C4.3294 7.21393 4.25663 7.00506 4.0896 6.8934C3.36434 6.40854 2.88745 5.58069 2.88745 4.64339C2.88745 4.35678 2.89284 4.10794 2.92453 3.8858C4.54779 5.6093 6.81024 6.7249 9.33615 6.85208C9.49252 6.85995 9.64354 6.79413 9.74422 6.67422C9.84489 6.55432 9.88359 6.39418 9.84877 6.24153C9.80402 6.0453 9.78009 5.84304 9.78009 5.63544C9.78009 4.16971 10.9679 2.98218 12.432 2.98218C13.9841 2.98218 15.0947 4.41623 15.0947 6.00084C15.0947 9.9514 12.091 14.4694 6.62553 14.4694Z" fill="white"/>
</svg>
